<svg width="18" height="20" viewBox="0 0 18 20" fill="none" xmlns="http://www.w3.org/2000/svg">
  <path d="M17.441 11.277L17.3078 11.4312L9.973 18.766L9.80073 18.9123C9.31779 19.2586 8.66096 19.2542 8.18248 18.899L8.02827 18.7659L0.694941 11.4297L0.561838 11.2755C0.16254 10.7371 0.207062 9.97325 0.695311 9.48519C1.18356 8.99713 1.94745 8.95289 2.48566 9.3524L2.63985 9.48556L7.62724 14.4726L7.62724 2.20765L7.63979 2.02107C7.72256 1.41094 8.20553 0.927967 8.81566 0.845197L9.00224 0.832645L9.18882 0.845197C9.79894 0.927967 10.2819 1.41094 10.3647 2.02107L10.3772 2.20765L10.3772 14.4726L15.3633 9.48666L15.5355 9.34038C16.0184 8.99413 16.6751 8.99851 17.1536 9.35353L17.3078 9.48666L17.4541 9.65891C17.8004 10.1418 17.796 10.7985 17.441 11.277Z" fill="#404040"/>
</svg>
