<svg xmlns="http://www.w3.org/2000/svg" width="26" height="26" fill="none"><g fill="#fff" clip-path="url(#a)"><path d="M20.297 16.073H5.702A4.764 4.764 0 0 1 4.465 6.71v-.062A5.945 5.945 0 0 1 15.603 3.75c.257-.062.519-.094.783-.095a3.75 3.75 0 0 1 3.624 2.894h.287a4.763 4.763 0 1 1 0 9.526Zm-9.883-14.67A5.251 5.251 0 0 0 5.168 6.65c0 .075.005.149.01.223l.007.093a.352.352 0 0 1-.282.364 4.06 4.06 0 0 0 .8 8.042h14.595a4.06 4.06 0 1 0 0-8.122h-.578a.352.352 0 0 1-.348-.3 3.042 3.042 0 0 0-2.986-2.592 2.979 2.979 0 0 0-.863.141.352.352 0 0 1-.414-.178 5.218 5.218 0 0 0-4.695-2.917Z"/><path d="M21.383 21.945H18.92a2.083 2.083 0 0 1-2.08-2.08v-4.14a.351.351 0 1 1 .703 0v4.14a1.38 1.38 0 0 0 1.378 1.377h2.462a.351.351 0 1 1 0 .703Z"/><path d="M22.85 23.409a1.819 1.819 0 1 1 .002-3.637 1.819 1.819 0 0 1-.001 3.637Zm0-2.934a1.115 1.115 0 1 0 0 2.228 1.115 1.115 0 0 0 .001-2.227v-.001ZM13 25.295a1.818 1.818 0 1 1-.071-3.634A1.818 1.818 0 0 1 13 25.296Zm0-2.933a1.116 1.116 0 1 0 0 2.232 1.116 1.116 0 0 0 0-2.232Zm-5.92-.417H4.616a.351.351 0 1 1 0-.703H7.08a1.379 1.379 0 0 0 1.377-1.378v-4.14a.351.351 0 1 1 .703 0v4.14a2.083 2.083 0 0 1-2.08 2.08Z"/><path d="M3.15 23.409a1.819 1.819 0 1 1 .001-3.638 1.819 1.819 0 0 1-.002 3.638Zm0-2.934a1.116 1.116 0 1 0-.001 2.23 1.116 1.116 0 0 0 .001-2.23Zm9.85 1.89a.351.351 0 0 1-.351-.352v-6.29a.351.351 0 0 1 .703 0v6.29a.35.35 0 0 1-.351.352H13Z"/></g><defs><clipPath id="a"><path fill="#fff" d="M0 0h26v26H0z"/></clipPath></defs></svg>